# xmcd
#
# Track frame offsets:
#	150
#	12840
#	22695
#	31800
#	41370
#	51443
#	61246
#	71431
#	82734
#	93377
#
# Disc length: 1363 seconds
#
# Revision: 0
# Processed by: cddbd v1.5.2PL0 Copyright (c) Steve Scherf et al.
# Submitted via: audiograbber 1.83.01
#
DISCID=6805510a
DTITLE=Porter Wagoner - An Old Log Cabin For Sale
DYEAR=1965
DGENRE=Country
TTITLE0=An Old Log Cabin For Sale
TTITLE1=Dear Lonesome
TTITLE2=Your Love
TTITLE3=Hey, Maw!
TTITLE4=Our Song Of Love
TTITLE5=Everything She Touches Gets The Blues
TTITLE6=The Battle Of Little Big Horn
TTITLE7=Tomorrow We'll Retire
TTITLE8=Let's Squiggle
TTITLE9=Me And Fred And Joe And Bill
EXTD=This is from my LP that I have turned into a CD
EXTT0=
EXTT1=
EXTT2=
EXTT3=
EXTT4=
EXTT5=
EXTT6=
EXTT7=
EXTT8=
EXTT9=
PLAYORDER=
